<svg xmlns="http://www.w3.org/2000/svg" viewBox="0 0 4405.3 4775.7"><path class="logo-path" d="M3579.9 1950.5C3761.3 1770.5 3872 1521.9 3872 1246.7c0-550.3-571.7-1008.4-995.8-995.8H1729.8a174.6 174.6 0 0 0-33.9-3H678.7a187 187 0 0 0-135 56.8 191.2 191.2 0 0 0-56 135.7c0 100.4 76 184.4 172.6 194a122.3 122.3 0 0 0 16.2h32.5l2079.4-9.6c351.9 0 665.4 321.6 665.4 673.5 0 321.6-239 588-549.6 630a663 663 0 0 1-86.3 5.9H1213.5c-47.9 0-89.2 20.7-120.2 53.1-31.7 32.5-50.2 78.2-50.2 128.4 0 100.4 76.7 181.5 170.4 181.5H3351.2c350.4 0 635.9 315 635.9 677.2 0 360.7-315 638.8-665.4 638.8L961.2 3591.7c0.7 1.5l-396.1-4.5c-126.9 14-302.4 64.2-411.6 173.4C45.7 3870.6 0 3984.2 0 4150.9c0 332.7 240.5 617.4 573.2 617.4l1820.5 7.4c332.7 0 879.3-120.2 1014.3-673.5H2983.8c-39.8 135-218.3 306.2-417.5 320.9l-1964.4-7.4a230.7 230.7 0 0 1-230.9-230.9 231.7 231.7 0 0 1 230.9-230.2l1890.6-9.6c22.2 0 182.9-5.9 202.9 0h714.1c548.8 0 995.8-458.8 995.8-1023.8C4405.3 2427.7 3972.3 2035.3 3579.9 1950.5ZM715.5 481.1v-0.7a122.2 122.2 0 0 0 16.2Z"/><path class="logo-path" d="M1147.1 0a122.3 122.3 0 0 0 16.2h-16.2Z"/><path class="logo-path" d="M1163.4h-16.2V0A122.3 122.3 0 0 0 1163.4Z"/><path class="logo-path" d="M3421.3 3499.4h-422s-50.9-379.1-552.5-382.1H1271.8c-568 0-1028.3-461-1028.3-1028.2 0-284 115.1-541.5 301-727.3 186.6-185.9 443.3-301 727.3-301H2500.7a176.7 176.7 0 0 1 28-2.2H2848.1a184.8 184.8 0 0 1 185.2 185.2c0 102.5-82.6 185.9-185.2 185.9H1322.7c-182.9 0-348.1 72.3-467.7 190.3C735.5 1737.2 661.8 1898.7 661.8 2078c0 358.5 295.8 655.8 660.9 655.8l1124.2 12.5S3292.3 2747.8 3421.3 3499.4Z"/></svg>